o lowpoly.obj
v 0.160000 0.000000 0.115000
v 0.160000 0.005000 0.115000
v 0.157320 0.000000 0.125000
v 0.157320 0.005000 0.125000
v 0.150000 0.000000 0.132321
v 0.150000 0.005000 0.132321
v -0.140000 0.000000 0.135000
v -0.140000 0.005000 0.135000
v -0.150000 0.000000 0.132321
v -0.150000 0.005000 0.132321
v -0.157321 0.000000 0.125000
v -0.157321 0.005000 0.125000
v -0.160000 0.000000 0.115000
v -0.160000 0.005000 0.115000
v -0.157321 0.000000 -0.125000
v -0.157321 0.005000 -0.125000
v -0.150000 0.000000 -0.132321
v -0.150000 0.005000 -0.132321
v -0.140000 0.000000 -0.135000
v -0.140000 0.005000 -0.135000
v 0.150000 0.000000 -0.132321
v 0.150000 0.005000 -0.132321
v 0.157320 0.000000 -0.125000
v 0.157320 0.005000 -0.125000
v -0.140000 0.005000 0.115000
v -0.140000 0.000000 0.115000
v 0.140000 0.005000 0.135000
v 0.140000 0.000000 0.135000
v 0.140000 0.005000 0.115000
v 0.140000 0.000000 0.115000
v 0.140000 0.005000 -0.135000
v 0.140000 0.000000 -0.135000
v -0.160000 0.005000 -0.115000
v -0.160000 0.000000 -0.115000
v -0.140000 0.005000 -0.115000
v -0.140000 0.000000 -0.115000
v 0.160000 0.000000 -0.115000
v 0.160000 0.005000 -0.115000
v 0.140000 0.005000 -0.115000
v 0.140000 0.000000 -0.115000
vn 0.698036 -0.710139 0.091915
vn 0.698036 0.710139 0.091915
vn 0.601677 -0.719249 0.347370
vn 0.601677 0.719249 0.347370
vn 0.347378 -0.719260 0.601659
vn 0.347378 0.719260 0.601659
vn -0.091883 -0.710137 0.698042
vn -0.091883 0.710137 0.698042
vn -0.347358 -0.719257 0.601674
vn -0.347358 0.719257 0.601674
vn -0.601674 -0.719257 0.347358
vn -0.601674 0.719257 0.347358
vn -0.698042 -0.710137 0.091882
vn -0.698042 0.710137 0.091882
vn -0.601674 -0.719257 -0.347358
vn -0.601674 0.719257 -0.347358
vn -0.347358 -0.719257 -0.601674
vn -0.347358 0.719257 -0.601674
vn -0.091883 -0.710137 -0.698042
vn -0.091883 0.710137 -0.698042
vn 0.347378 -0.719260 -0.601659
vn 0.347378 0.719260 -0.601659
vn 0.601677 -0.719249 -0.347370
vn 0.601677 0.719249 -0.347370
vn 0.000000 1.000000 0.000000
vn 0.000000 -1.000000 0.000000
vn 0.091883 0.710137 0.698042
vn 0.091883 -0.710137 0.698042
vn 0.000000 1.000000 0.000000
vn 0.000000 -1.000000 0.000000
vn 0.091883 0.710137 -0.698042
vn 0.091883 -0.710137 -0.698042
vn -0.698042 0.710137 -0.091882
vn -0.698042 -0.710137 -0.091882
vn 0.000000 1.000000 0.000000
vn 0.000000 -1.000000 0.000000
vn 0.698036 -0.710139 -0.091915
vn 0.698036 0.710139 -0.091915
vn 0.000000 1.000000 0.000000
vn 0.000000 -1.000000 0.000000
vt 0.483077 0.589845
vt 0.460636 0.595562
vt 0.460629 0.586626
vt 0.478402 0.581698
vt 0.460627 0.550888
vt 0.548137 0.577904
vt 0.530260 0.573114
vt 0.548137 0.542151
vt 0.499584 0.573337
vt 0.491437 0.568663
vt 0.517174 0.560028
vt 0.505301 0.550895
vt 0.496365 0.550890
vt 0.512384 0.542151
vt 0.499592 0.028088
vt 0.505308 0.050531
vt 0.496372 0.050536
vt 0.491444 0.032763
vt 0.460634 0.050537
vt 0.512384 0.041609
vt 0.517174 0.023733
vt 0.548137 0.041609
vt 0.483084 0.011581
vt 0.478409 0.019727
vt 0.530260 0.010646
vt 0.460644 0.005863
vt 0.460636 0.014799
vt 0.548137 0.005856
vt 0.027181 0.011574
vt 0.049622 0.005856
vt 0.049629 0.014793
vt 0.031856 0.019721
vt 0.049631 0.050531
vt 0.959296 0.005856
vt 0.977173 0.010646
vt 0.959296 0.041609
vt 0.010673 0.028082
vt 0.018821 0.032756
vt 0.990260 0.023733
vt 0.004957 0.050524
vt 0.013893 0.050530
vt 0.995049 0.041609
vt 0.010666 0.573331
vt 0.004951 0.550889
vt 0.013886 0.550884
vt 0.018814 0.568657
vt 0.049625 0.550883
vt 0.995049 0.542151
vt 0.990259 0.560028
vt 0.959296 0.542151
vt 0.027174 0.589839
vt 0.031849 0.581693
vt 0.977173 0.573114
vt 0.049615 0.595557
vt 0.049622 0.586621
vt 0.959296 0.577904
g L_MousePad
f 3/1/3 1/2/1 2/3/2 4/4/4 
f 4/4/4 2/3/2 29/5/29 
f 1/6/1 3/7/3 30/8/30 
f 5/9/5 3/1/3 4/4/4 6/10/6 
f 6/10/6 4/4/4 29/5/29 
f 3/7/3 5/11/5 30/8/30 
f 28/12/28 5/9/5 6/10/6 27/13/27 
f 27/13/27 6/10/6 29/5/29 
f 5/11/5 28/14/28 30/8/30 
f 9/15/9 7/16/7 8/17/8 10/18/10 
f 10/18/10 8/17/8 25/19/25 
f 7/20/7 9/21/9 26/22/26 
f 11/23/11 9/15/9 10/18/10 12/24/12 
f 12/24/12 10/18/10 25/19/25 
f 9/21/9 11/25/11 26/22/26 
f 13/26/13 11/23/11 12/24/12 14/27/14 
f 14/27/14 12/24/12 25/19/25 
f 11/25/11 13/28/13 26/22/26 
f 15/29/15 34/30/34 33/31/33 16/32/16 
f 16/32/16 33/31/33 35/33/35 
f 34/34/34 15/35/15 36/36/36 
f 17/37/17 15/29/15 16/32/16 18/38/18 
f 18/38/18 16/32/16 35/33/35 
f 15/35/15 17/39/17 36/36/36 
f 19/40/19 17/37/17 18/38/18 20/41/20 
f 20/41/20 18/38/18 35/33/35 
f 17/39/17 19/42/19 36/36/36 
f 21/43/21 32/44/32 31/45/31 22/46/22 
f 22/46/22 31/45/31 39/47/39 
f 32/48/32 21/49/21 40/50/40 
f 23/51/23 21/43/21 22/46/22 24/52/24 
f 24/52/24 22/46/22 39/47/39 
f 21/49/21 23/53/23 40/50/40 
f 37/54/37 23/51/23 24/52/24 38/55/38 
f 38/55/38 24/52/24 39/47/39 
f 23/53/23 37/56/37 40/50/40 
f 8/17/8 7/16/7 28/12/28 27/13/27 
f 25/19/25 8/17/8 27/13/27 29/5/29 
f 7/20/7 26/22/26 30/8/30 28/14/28 
f 19/40/19 20/41/20 31/45/31 32/44/32 
f 20/41/20 35/33/35 39/47/39 31/45/31 
f 36/36/36 19/42/19 32/48/32 40/50/40 
f 13/26/13 14/27/14 33/31/33 34/30/34 
f 14/27/14 25/19/25 35/33/35 33/31/33 
f 26/22/26 13/28/13 34/34/34 36/36/36 
f 2/3/2 1/2/1 37/54/37 38/55/38 
f 29/5/29 2/3/2 38/55/38 39/47/39 
f 1/6/1 30/8/30 40/50/40 37/56/37 
f 25/19/25 29/5/29 39/47/39 35/33/35 
f 30/8/30 26/22/26 36/36/36 40/50/40 
