o lowpoly.obj
v -0.005579 0.000000 -0.062710
v 0.005579 0.000000 -0.062710
v -0.009510 0.000000 0.061063
v 0.009510 0.000000 0.061063
v -0.029601 0.000000 0.000000
v 0.029601 0.000000 0.000000
v 0.027399 0.025161 0.000000
v -0.027399 0.025161 0.000000
v 0.000000 0.000000 0.062600
v 0.000000 0.040000 0.000000
v -0.028047 0.000000 -0.042305
v 0.028047 0.000000 -0.042305
v 0.025961 0.021168 -0.043707
v -0.025961 0.021168 -0.043707
v 0.000000 0.029800 -0.043707
v 0.028541 0.000000 0.039547
v 0.024749 0.020766 0.040859
v -0.024749 0.020766 0.040859
v -0.028541 0.000000 0.039547
v 0.000000 0.030833 0.042090
v 0.019635 0.000000 0.054001
v -0.000000 0.000000 -0.000357
v 0.000000 0.019774 0.057022
v -0.019635 0.000000 0.054001
v -0.031659 0.000000 0.022970
v 0.031659 0.000000 0.022970
v 0.028833 0.023763 0.023732
v -0.028833 0.023763 0.023732
v 0.000000 0.038021 0.023732
v 0.031422 0.000000 -0.021426
v 0.029085 0.024072 -0.022136
v -0.029085 0.024072 -0.022136
v 0.000000 0.037985 -0.022136
v -0.031422 0.000000 -0.021426
v -0.019297 0.000000 -0.055267
v 0.019298 0.000000 -0.055267
v 0.019277 0.015670 -0.057099
v -0.019277 0.015670 -0.057099
v 0.000000 0.021101 -0.057099
v 0.005957 0.010558 -0.063933
v -0.005957 0.010558 -0.063933
v 0.010154 0.007442 0.063098
v -0.010154 0.007442 0.063098
v 0.031605 0.007442 0.000000
v -0.031605 0.007442 0.000000
v 0.000000 0.007442 0.064686
v 0.029946 0.007442 -0.043707
v -0.029946 0.007442 -0.043707
v 0.030473 0.007442 0.040859
v -0.030473 0.007442 0.040859
v 0.020965 0.007442 0.055791
v -0.020965 0.007442 0.055791
v 0.033803 0.007442 0.023732
v -0.033803 0.007442 0.023732
v 0.033549 0.007442 -0.022136
v -0.033549 0.007442 -0.022136
v 0.020604 0.008197 -0.057099
v -0.020604 0.008197 -0.057099
v -0.015458 0.035883 0.000000
v -0.014646 0.027657 -0.043707
v -0.013963 0.028366 0.040859
v -0.013482 0.018196 0.055791
v -0.016266 0.033799 0.023732
v -0.016409 0.034023 -0.022136
v -0.011005 0.019960 -0.057099
v 0.015458 0.035883 0.000000
v 0.014646 0.027657 -0.043707
v 0.013963 0.028366 0.040859
v 0.013482 0.018196 0.055791
v 0.016267 0.033799 0.023732
v 0.016409 0.034023 -0.022136
v 0.011005 0.019960 -0.057099
vn -0.226612 -0.655027 -0.720824
vn 0.186024 -0.562481 -0.805612
vn -0.310898 -0.707491 0.634664
vn 0.310898 -0.707491 0.634664
vn -0.783118 -0.621871 -0.001822
vn 0.783118 -0.621871 -0.001822
vn 0.901191 0.433384 0.005762
vn -0.886770 0.461547 0.024760
vn 0.000000 -0.629265 0.777191
vn -0.000002 1.000000 -0.000463
vn -0.669269 -0.712563 -0.210552
vn 0.669275 -0.712561 -0.210541
vn 0.703242 0.613230 -0.359721
vn -0.703242 0.613230 -0.359721
vn -0.000000 0.879084 -0.476668
vn 0.669447 -0.711446 0.213743
vn 0.687692 0.589507 0.423746
vn -0.687689 0.589514 0.423741
vn -0.669447 -0.711446 0.213743
vn 0.000000 0.858538 0.512750
vn 0.541014 -0.711076 0.449083
vn 0.000000 -1.000000 0.000000
vn 0.000000 0.630879 0.775881
vn -0.541014 -0.711076 0.449083
vn -0.596303 -0.802252 0.028544
vn 0.596303 -0.802252 0.028544
vn 0.815297 0.564273 0.129949
vn -0.848099 0.520694 0.098003
vn -0.000005 0.964884 0.262678
vn 0.598396 -0.800888 -0.022390
vn 0.835263 0.543085 -0.085988
vn -0.835263 0.543085 -0.085988
vn 0.000000 0.967988 -0.250998
vn -0.598396 -0.800888 -0.022390
vn -0.511508 -0.707097 -0.488235
vn 0.511527 -0.707077 -0.488245
vn 0.566009 0.438958 -0.697818
vn -0.566009 0.438958 -0.697818
vn 0.000000 0.684074 -0.729413
vn 0.203680 0.255073 -0.945226
vn -0.174907 0.201426 -0.963761
vn 0.300362 0.111810 0.947249
vn -0.300362 0.111810 0.947249
vn 0.999885 -0.014999 -0.002380
vn -0.998774 0.048285 -0.010953
vn 0.000000 0.141452 0.989945
vn 0.915781 0.013521 -0.401451
vn -0.915778 0.013507 -0.401458
vn 0.922334 0.028551 0.385336
vn -0.922334 0.028551 0.385336
vn 0.698511 0.062281 0.712884
vn -0.698511 0.062281 0.712884
vn 0.998452 -0.042733 0.035589
vn -0.994730 -0.090142 0.048854
vn 0.998452 -0.050339 -0.023648
vn -0.998452 -0.050339 -0.023648
vn 0.606426 -0.086256 -0.790448
vn -0.606427 -0.086286 -0.790443
vn -0.527052 0.849816 0.005362
vn -0.301510 0.853523 -0.424958
vn -0.340509 0.841453 0.419536
vn -0.377694 0.639568 0.669552
vn -0.430475 0.881996 0.191766
vn -0.412088 0.896096 -0.164910
vn -0.186704 0.716200 -0.672458
vn 0.527058 0.849812 0.005355
vn 0.301510 0.853523 -0.424958
vn 0.340505 0.841451 0.419544
vn 0.377694 0.639568 0.669552
vn 0.430481 0.881993 0.191768
vn 0.412088 0.896096 -0.164910
vn 0.186704 0.716200 -0.672458
vt 0.065443 0.756809
vt 0.059381 0.801816
vt 0.125713 0.743172
vt 0.030692 0.854232
vt 0.066126 0.846579
vt 0.082732 0.904202
vt 0.045531 0.913225
vt 0.917695 0.788574
vt 0.923520 0.857105
vt 0.823016 0.789715
vt 0.327389 0.606432
vt 0.409868 0.609866
vt 0.408380 0.638616
vt 0.327388 0.635660
vt 0.401712 0.697525
vt 0.397452 0.748556
vt 0.327927 0.751360
vt 0.327732 0.699499
vt 0.327778 0.901473
vt 0.401094 0.903598
vt 0.407592 0.961911
vt 0.327459 0.964835
vt 0.625445 0.774392
vt 0.575780 0.826341
vt 0.578059 0.777793
vt 0.912724 0.923885
vt 0.884739 0.965344
vt 0.554367 0.649125
vt 0.545327 0.684257
vt 0.486262 0.655879
vt 0.491551 0.626573
vt 0.528551 0.757740
vt 0.470993 0.750631
vt 0.475342 0.705995
vt 0.542771 0.917309
vt 0.484550 0.945040
vt 0.473966 0.895523
vt 0.733309 0.923885
vt 0.722513 0.857105
vt 0.397501 0.852665
vt 0.470933 0.851046
vt 0.721754 0.715104
vt 0.731729 0.662082
vt 0.168173 0.627166
vt 0.239438 0.610706
vt 0.240620 0.640002
vt 0.176580 0.656699
vt 0.254991 0.800712
vt 0.253138 0.852368
vt 0.194790 0.849386
vt 0.192313 0.800897
vt 0.249214 0.902940
vt 0.241347 0.960829
vt 0.177672 0.944645
vt 0.190675 0.893618
vt 0.914303 0.662082
vt 0.924278 0.715104
vt 0.190008 0.707940
vt 0.248778 0.698230
vt 0.252925 0.748996
vt 0.194429 0.752322
vt 0.760213 0.615853
vt 0.102816 0.659394
vt 0.123014 0.801250
vt 0.115758 0.911528
vt 0.885820 0.615853
vt 0.728338 0.788574
vt 0.327878 0.800614
vt 0.327903 0.849836
vt 0.761294 0.965344
vt 0.527545 0.844461
vt 0.572944 0.703542
vt 0.614428 0.699551
vt 0.533893 0.884417
vt 0.029739 0.749925
vt 0.043665 0.690494
vt 0.081060 0.698724
vt 0.126421 0.859147
vt 0.409041 0.990326
vt 0.023475 0.802267
vt 0.551582 0.951916
vt 0.240313 0.989901
vt 0.169526 0.974029
vt 0.114540 0.690538
vt 0.104367 0.942550
vt 0.327516 0.993786
vt 0.489690 0.973958
vt 0.536261 0.717705
vt 0.623328 0.831925
vt 0.609613 0.905191
vt 0.568955 0.899563
vt 0.792599 0.593264
vt 0.823016 0.588349
vt 0.853434 0.593264
vt 0.805171 0.989151
vt 0.840861 0.989151
vt 0.395723 0.800613
vt 0.469951 0.800817
vt 0.527038 0.801431
g L_Mouse
f 42/1/42 46/2/46 9/80/9 
f 9/80/9 4/75/4 42/1/42 
f 42/1/42 51/77/51 69/3/69 
f 3/4/3 43/5/43 52/6/52 
f 3/4/3 52/6/52 24/7/24 
f 5/8/5 34/9/34 22/10/22 
f 6/11/6 30/12/30 55/13/55 
f 6/11/6 55/13/55 44/14/44 
f 31/15/31 71/16/71 66/17/66 
f 66/17/66 7/18/7 31/15/31 
f 8/19/8 32/20/32 56/21/56 
f 8/19/8 56/21/56 45/22/45 
f 2/23/2 1/89/1 41/24/41 
f 2/23/2 41/24/41 40/25/40 
f 11/26/11 35/27/35 22/10/22 
f 36/28/36 57/29/57 47/30/47 
f 47/30/47 12/31/12 36/28/36 
f 37/88/37 72/32/72 67/33/67 
f 67/33/67 13/34/13 37/88/37 
f 38/74/38 58/35/58 48/36/48 
f 48/36/48 14/37/14 38/74/38 
f 12/38/12 30/39/30 22/10/22 
f 14/37/14 32/20/32 64/40/64 
f 14/37/14 64/40/64 60/41/60 
f 22/10/22 26/42/26 16/43/16 
f 16/44/16 26/45/26 53/46/53 
f 16/44/16 53/46/53 49/47/49 
f 29/48/29 63/49/63 61/50/61 
f 61/50/61 20/51/20 29/48/29 
f 28/52/28 54/53/54 50/54/50 
f 50/54/50 18/55/18 28/52/28 
f 19/56/19 25/57/25 22/10/22 
f 17/58/17 27/59/27 70/60/70 
f 17/58/17 70/60/70 68/61/68 
f 22/10/22 16/43/16 21/62/21 
f 21/63/21 16/44/16 49/47/49 
f 21/63/21 49/47/49 51/84/51 
f 20/51/20 61/50/61 62/78/62 
f 62/78/62 23/64/23 20/51/20 
f 18/55/18 50/54/50 52/65/52 
f 52/65/52 62/78/62 18/55/18 
f 24/66/24 19/56/19 22/10/22 
f 69/3/69 17/58/17 68/61/68 
f 22/10/22 6/67/6 26/42/26 
f 6/11/6 44/14/44 53/46/53 
f 53/46/53 26/45/26 6/11/6 
f 10/68/10 59/69/59 63/49/63 
f 63/49/63 29/48/29 10/68/10 
f 28/52/28 8/19/8 45/22/45 
f 28/52/28 45/22/45 54/53/54 
f 25/57/25 5/8/5 22/10/22 
f 27/59/27 7/18/7 66/17/66 
f 27/59/27 66/17/66 70/60/70 
f 34/9/34 11/26/11 22/10/22 
f 12/31/12 47/30/47 55/13/55 
f 55/13/55 30/12/30 12/31/12 
f 13/34/13 67/33/67 71/16/71 
f 71/16/71 31/15/31 13/34/13 
f 32/20/32 14/37/14 48/36/48 
f 32/20/32 48/36/48 56/21/56 
f 30/39/30 6/67/6 22/10/22 
f 32/20/32 8/19/8 59/69/59 
f 32/20/32 59/69/59 64/40/64 
f 36/70/36 12/38/12 22/10/22 
f 38/74/38 14/37/14 60/41/60 
f 38/74/38 60/41/60 65/71/65 
f 2/23/2 40/25/40 57/72/57 
f 57/72/57 36/73/36 2/23/2 
f 38/74/38 41/24/41 58/91/58 
f 4/75/4 21/76/21 51/77/51 
f 51/77/51 42/1/42 4/75/4 
f 43/5/43 62/78/62 52/6/52 
f 55/13/55 31/15/31 7/18/7 
f 55/13/55 7/18/7 44/14/44 
f 56/21/56 34/79/34 5/86/5 
f 56/21/56 5/86/5 45/22/45 
f 43/5/43 3/4/3 9/80/9 
f 43/5/43 9/80/9 46/2/46 
f 37/88/37 13/34/13 47/30/47 
f 47/30/47 57/29/57 37/88/37 
f 35/81/35 11/87/11 48/36/48 
f 48/36/48 58/35/58 35/81/35 
f 27/59/27 17/58/17 49/47/49 
f 49/47/49 53/46/53 27/59/27 
f 54/53/54 25/82/25 19/83/19 
f 54/53/54 19/83/19 50/54/50 
f 17/58/17 69/3/69 51/84/51 
f 51/84/51 49/47/49 17/58/17 
f 50/54/50 19/83/19 24/85/24 
f 50/54/50 24/85/24 52/65/52 
f 7/18/7 27/59/27 53/46/53 
f 53/46/53 44/14/44 7/18/7 
f 5/86/5 25/82/25 54/53/54 
f 54/53/54 45/22/45 5/86/5 
f 47/30/47 13/34/13 31/15/31 
f 47/30/47 31/15/31 55/13/55 
f 11/87/11 34/79/34 56/21/56 
f 56/21/56 48/36/48 11/87/11 
f 40/25/40 37/88/37 57/72/57 
f 1/89/1 35/90/35 58/91/58 
f 58/91/58 41/24/41 1/89/1 
f 43/5/43 46/2/46 23/64/23 
f 43/5/43 23/64/23 62/78/62 
f 42/1/42 69/3/69 23/64/23 
f 42/1/42 23/64/23 46/2/46 
f 4/92/4 9/93/9 22/10/22 
f 4/92/4 22/10/22 21/62/21 
f 3/94/3 24/66/24 22/10/22 
f 22/10/22 9/93/9 3/94/3 
f 2/95/2 36/70/36 22/10/22 
f 1/96/1 2/95/2 22/10/22 
f 22/10/22 35/27/35 1/96/1 
f 33/97/33 15/98/15 60/41/60 
f 60/41/60 64/40/64 33/97/33 
f 63/49/63 28/52/28 18/55/18 
f 63/49/63 18/55/18 61/50/61 
f 61/50/61 18/55/18 62/78/62 
f 59/69/59 8/19/8 28/52/28 
f 59/69/59 28/52/28 63/49/63 
f 10/68/10 33/97/33 64/40/64 
f 64/40/64 59/69/59 10/68/10 
f 15/98/15 39/99/39 65/71/65 
f 65/71/65 60/41/60 15/98/15 
f 71/16/71 33/97/33 10/68/10 
f 71/16/71 10/68/10 66/17/66 
f 72/32/72 39/99/39 15/98/15 
f 72/32/72 15/98/15 67/33/67 
f 29/48/29 20/51/20 68/61/68 
f 68/61/68 70/60/70 29/48/29 
f 20/51/20 23/64/23 69/3/69 
f 69/3/69 68/61/68 20/51/20 
f 10/68/10 29/48/29 70/60/70 
f 70/60/70 66/17/66 10/68/10 
f 67/33/67 15/98/15 33/97/33 
f 67/33/67 33/97/33 71/16/71 
f 41/24/41 38/74/38 65/71/65 
f 40/25/40 39/99/39 72/32/72 
f 72/32/72 37/88/37 40/25/40 
f 41/24/41 65/71/65 39/99/39 
f 39/99/39 40/25/40 41/24/41 
