o Utensil_Pencil.obj
v 0.072500 -0.005000 0.002071
v 0.072500 -0.002071 0.005000
v 0.072500 0.002071 0.005000
v 0.072500 0.005000 0.002071
v 0.072500 0.005000 -0.002071
v 0.072500 0.002071 -0.005000
v 0.072500 -0.002071 -0.005000
v 0.072500 -0.005000 -0.002071
v 0.075000 0.000000 0.000000
v -0.075000 0.000000 0.000000
v -0.074141 -0.000518 0.001250
v -0.074141 0.000518 0.001250
v -0.074141 0.001250 0.000518
v -0.074141 0.001250 -0.000518
v -0.074141 0.000518 -0.001250
v -0.074141 -0.000518 -0.001250
v -0.074141 -0.001250 -0.000518
v -0.074141 -0.001250 0.000518
v -0.057500 -0.005000 0.002071
v -0.057500 -0.002071 0.005000
v -0.057500 0.002071 0.005000
v -0.057500 0.005000 0.002071
v -0.057500 0.005000 -0.002071
v -0.057500 0.002071 -0.005000
v -0.057500 -0.002071 -0.005000
v -0.057500 -0.005000 -0.002071
v 0.075000 -0.002500 0.001036
v 0.075000 -0.001036 0.002500
v 0.075000 0.001036 0.002500
v 0.075000 0.002500 0.001036
v 0.075000 0.002500 -0.001036
v 0.075000 0.001036 -0.002500
v 0.075000 -0.001036 -0.002500
v 0.075000 -0.002500 -0.001036
vn 0.405885 -0.884255 0.230976
vn 0.405872 -0.461950 0.788587
vn 0.405885 0.230976 0.884255
vn 0.405872 0.788588 0.461950
vn 0.405885 0.884255 -0.230976
vn 0.405872 0.461950 -0.788587
vn 0.405885 -0.230976 -0.884255
vn 0.405872 -0.788588 -0.461950
vn 1.000000 0.000000 0.000000
vn -1.000000 0.000000 0.000000
vn -0.522217 -0.402794 0.751696
vn -0.522219 0.246703 0.816349
vn -0.522217 0.751696 0.402794
vn -0.522219 0.816349 -0.246703
vn -0.522217 0.402794 -0.751696
vn -0.522219 -0.246703 -0.816349
vn -0.522217 -0.751696 -0.402794
vn -0.522219 -0.816349 0.246703
vn -0.118470 -0.856780 0.501890
vn -0.118472 -0.250945 0.960724
vn -0.118470 0.501890 0.856780
vn -0.118472 0.960724 0.250945
vn -0.118470 0.856780 -0.501890
vn -0.118472 0.250945 -0.960724
vn -0.118470 -0.501890 -0.856780
vn -0.118472 -0.960724 -0.250945
vn 0.901492 -0.373437 0.218761
vn 0.901499 -0.109380 0.418730
vn 0.901492 0.218761 0.373437
vn 0.901499 0.418730 0.109380
vn 0.901492 0.373437 -0.218761
vn 0.901499 0.109380 -0.418730
vn 0.901492 -0.218761 -0.373437
vn 0.901499 -0.418730 -0.109380
vt 0.407700 0.123640
vt 0.384758 0.123772
vt 0.361582 0.019701
vt 0.370180 0.017720
vt 0.384388 0.845081
vt 0.402775 0.864795
vt 0.388858 0.865060
vt 0.361854 0.123845
vt 0.351540 0.020832
vt 0.361394 0.845058
vt 0.378620 0.864702
vt 0.367123 0.864690
vt 0.338969 0.123859
vt 0.340683 0.021295
vt 0.338402 0.845035
vt 0.355626 0.864678
vt 0.344130 0.864667
vt 0.316085 0.123816
vt 0.329602 0.021171
vt 0.315409 0.845010
vt 0.332633 0.864654
vt 0.321137 0.864642
vt 0.293184 0.123713
vt 0.318884 0.020445
vt 0.292417 0.844985
vt 0.309639 0.864629
vt 0.298143 0.864617
vt 0.270249 0.123550
vt 0.309130 0.019009
vt 0.269425 0.844959
vt 0.286647 0.864604
vt 0.275151 0.864591
vt 0.247259 0.123325
vt 0.300974 0.016650
vt 0.246433 0.844933
vt 0.263654 0.864578
vt 0.252158 0.864565
vt 0.376652 0.014592
vt 0.407391 0.845100
vt 0.430385 0.845110
vt 0.424628 0.864734
vt 0.413131 0.864729
vt 0.363490 0.008331
vt 0.355195 0.008145
vt 0.345552 0.007956
vt 0.335293 0.007858
vt 0.325119 0.007871
vt 0.315741 0.007952
vt 0.307900 0.007985
vt 0.369640 0.008344
vt 0.430699 0.123448
vt 0.395868 0.878996
vt 0.372858 0.878574
vt 0.349863 0.878550
vt 0.326870 0.878525
vt 0.303876 0.878500
vt 0.280883 0.878475
vt 0.257890 0.878448
vt 0.418874 0.878609
g L_COMBO
f 19/1/19 20/2/20 11/3/11 
f 19/1/19 11/3/11 18/4/18 
f 2/5/2 1/39/1 27/6/27 
f 2/5/2 27/6/27 28/7/28 
f 20/2/20 21/8/21 12/9/12 
f 20/2/20 12/9/12 11/3/11 
f 3/10/3 2/5/2 28/11/28 
f 3/10/3 28/11/28 29/12/29 
f 21/8/21 22/13/22 13/14/13 
f 21/8/21 13/14/13 12/9/12 
f 4/15/4 3/10/3 29/16/29 
f 4/15/4 29/16/29 30/17/30 
f 22/13/22 23/18/23 14/19/14 
f 22/13/22 14/19/14 13/14/13 
f 5/20/5 4/15/4 30/21/30 
f 5/20/5 30/21/30 31/22/31 
f 23/18/23 24/23/24 15/24/15 
f 23/18/23 15/24/15 14/19/14 
f 6/25/6 5/20/5 31/26/31 
f 6/25/6 31/26/31 32/27/32 
f 24/23/24 25/28/25 16/29/16 
f 24/23/24 16/29/16 15/24/15 
f 7/30/7 6/25/6 32/31/32 
f 7/30/7 32/31/32 33/32/33 
f 25/28/25 26/33/26 17/34/17 
f 25/28/25 17/34/17 16/29/16 
f 8/35/8 7/30/7 33/36/33 
f 8/35/8 33/36/33 34/37/34 
f 26/51/26 19/1/19 18/4/18 
f 26/51/26 18/4/18 17/38/17 
f 1/39/1 8/40/8 34/41/34 
f 1/39/1 34/41/34 27/42/27 
f 11/3/11 10/43/10 18/4/18 
f 12/9/12 10/44/10 11/3/11 
f 13/14/13 10/45/10 12/9/12 
f 14/19/14 10/46/10 13/14/13 
f 15/24/15 10/47/10 14/19/14 
f 16/29/16 10/48/10 15/24/15 
f 17/34/17 10/49/10 16/29/16 
f 18/4/18 10/50/10 17/38/17 
f 19/1/19 1/39/1 2/5/2 
f 19/1/19 2/5/2 20/2/20 
f 20/2/20 2/5/2 3/10/3 
f 20/2/20 3/10/3 21/8/21 
f 21/8/21 3/10/3 4/15/4 
f 21/8/21 4/15/4 22/13/22 
f 22/13/22 4/15/4 5/20/5 
f 22/13/22 5/20/5 23/18/23 
f 23/18/23 5/20/5 6/25/6 
f 23/18/23 6/25/6 24/23/24 
f 24/23/24 6/25/6 7/30/7 
f 24/23/24 7/30/7 25/28/25 
f 25/28/25 7/30/7 8/35/8 
f 25/28/25 8/35/8 26/33/26 
f 26/51/26 8/40/8 1/39/1 
f 26/51/26 1/39/1 19/1/19 
f 27/6/27 9/52/9 28/7/28 
f 28/11/28 9/53/9 29/12/29 
f 29/16/29 9/54/9 30/17/30 
f 30/21/30 9/55/9 31/22/31 
f 31/26/31 9/56/9 32/27/32 
f 32/31/32 9/57/9 33/32/33 
f 33/36/33 9/58/9 34/37/34 
f 34/41/34 9/59/9 27/42/27 
